<mxfile host="app.diagrams.net" modified="2024-04-20T17:57:42.140Z" agent="Mozilla/5.0 (Windows NT 10.0; Win64; x64; rv:124.0) Gecko/20100101 Firefox/124.0" version="24.2.7" etag="fNlLRGZORXk2IeEox_li" type="github">
  <diagram name="Page-1" id="lsmKqy4dSucdkPgisJoh">
    <mxGraphModel>
      <root>
        <mxCell id="0" />
        <mxCell id="1" parent="0" />
      </root>
    </mxGraphModel>
  </diagram>
</mxfile>
